<?xml version="1.0" encoding="UTF-8"?>
<svg id="Camada_1" data-name="Camada 1" xmlns="http://www.w3.org/2000/svg" xmlns:xlink="http://www.w3.org/1999/xlink" viewBox="0 0 1456.46 317.31">
  <defs>
    <style>
      .cls-1 {
        fill: none;
      }

      .cls-2 {
        fill: #465060;
      }

      .cls-3 {
        clip-path: url(#clippath);
      }

      .cls-4 {
        fill: #a4adbe;
      }
    </style>
    <clipPath id="clippath">
      <rect class="cls-1" x="1214.03" y="142.14" width="165.6" height="48.3"/>
    </clipPath>
  </defs>
  <path class="cls-2" d="M73.63,122.4h-39.47v149.58h39.47V122.4Z"/>
  <path class="cls-2" d="M98.5,155.92v116.07h39.82v-118.19h54.49v-31.39h-60.44c-22.46,0-33.8,11.34-33.8,33.51h-.07Z"/>
  <path class="cls-2" d="M284.36,119.36c-45.49,0-82.55,34.72-82.55,77.52s37.13,78.09,82.55,78.09,82.26-34.72,82.26-78.09-37.41-77.52-82.26-77.52ZM284.36,243.57c-26.64,0-42.8-20.62-42.8-46.69s16.15-46.06,42.8-46.06,42.8,20.62,42.8,46.06-16.44,46.69-42.8,46.69Z"/>
  <path class="cls-2" d="M471.64,119.36c-17.64,0-33.8,6.87-45.77,18.28v-15.23h-39.82v149.58h39.82v-75.11c0-24.8,17.64-45.77,39.82-45.77s34.08,17.93,34.08,41.88v79.01h39.82v-79.01c0-41.03-26.36-73.62-67.95-73.62Z"/>
  <path class="cls-2" d="M646.44,150.82c22.46,0,37.98,10.77,37.98,25.72h39.47c0-32.31-36.77-57.18-77.52-57.18-48.47,0-87.37,34.72-87.37,77.52s38.9,77.52,87.37,77.52c40.67,0,77.52-25.15,77.52-57.47l-39.47.28c0,14.67-15.59,25.72-37.98,25.72-29.62,0-47.54-20.62-47.54-46.06s17.93-46.06,47.54-46.06Z"/>
  <path class="cls-2" d="M783.2,62.53h-39.82v209.45h39.82V62.53Z"/>
  <path class="cls-2" d="M1110.91,59.34v68.8c-10.76-7.51-23.3-11.98-37.41-11.98-42.8,0-77.16,34.72-77.16,77.52s34.43,78.08,77.16,78.08c14.02,0,26.65-4.46,37.41-11.97v9h39.47V59.34h-39.47ZM1073.57,240.38c-23.94,0-37.41-20.62-37.41-46.69s13.47-46.06,37.41-46.06,37.41,20.62,37.41,46.06-13.45,46.69-37.41,46.69Z"/>
  <path class="cls-2" d="M969.19,171.15l-28.98-31.74c-12.18-13.32-29.48-21.04-47.54-21.19-18.35-.14-35.5,7.3-47.83,20.48l-26.85,28.56c-11.41,12.12-17.64,27.92-17.64,44.5v59.95h34.23v-59.95c0-7.87,2.97-15.38,8.35-21.04l26.86-28.56c5.95-6.31,13.75-9.42,22.68-9.71,8.64,0,16.65,3.61,22.46,9.99l28.98,31.74c4.74,5.17,7.57,11.9,7.93,18.35l.28,12.05c-14.3-8.5-33.58-13.68-54.49-13.68-7.37,0-14.37.85-21.18,2.13v29.83c6.66-1.84,13.75-2.98,21.18-2.98,26.58,0,49.82,12.54,55.7,30.47v1.35h34.29l-1.55-60.65c-.85-14.81-6.87-29.05-16.87-40.03v.14Z"/>
  <g class="cls-3">
    <g>
      <path class="cls-4" d="M1227.98,189.65v-41.24h-13.95v-5.49h34.71v5.49h-14.01v41.24h-6.74Z"/>
      <path class="cls-4" d="M1255.48,189.65v-46.73h29.81v5.49h-23.06v14.97h21.01v5.36h-21.01v15.49h23.06v5.49h-29.81v-.07Z"/>
      <path class="cls-4" d="M1314.71,190.43c-4.57,0-8.61-.98-11.97-3.01-3.36-2.03-5.95-4.83-7.73-8.5-1.79-3.59-2.73-7.84-2.73-12.61s.93-8.95,2.73-12.61c1.78-3.66,4.36-6.47,7.73-8.5,3.36-2.03,7.33-3.01,11.97-3.01,5.49,0,9.97,1.31,13.47,3.92,3.52,2.62,5.69,6.34,6.55,11.05h-7.47c-.67-2.75-2.05-4.97-4.11-6.6-2.05-1.63-4.88-2.48-8.52-2.48-3.17,0-5.95.72-8.26,2.22-2.31,1.44-4.11,3.53-5.36,6.28-1.24,2.74-1.91,5.95-1.91,9.74s.6,7.06,1.91,9.8c1.26,2.74,3.05,4.83,5.36,6.27,2.31,1.44,5.02,2.16,8.26,2.16,3.57,0,6.42-.78,8.52-2.35,2.05-1.57,3.43-3.72,4.11-6.4h7.47c-.93,4.64-3.1,8.23-6.55,10.85-3.5,2.61-7.99,3.92-13.47,3.92v-.13Z"/>
      <path class="cls-4" d="M1342.86,189.65v-46.73h6.74v46.67h-6.74v.07ZM1348.49,168.54v-5.49h25.91v5.49h-25.91ZM1372.88,189.65v-46.73h6.74v46.67h-6.74v.07Z"/>
    </g>
  </g>
</svg>